<svg xmlns="http://www.w3.org/2000/svg" width="1200" height="1600" viewBox="0 0 1200 1600"><rect width="100%" height="100%" fill="#DDDDDD"/><path fill="#999999" d="M284.305 834.16h16.51v11.75h-50.8v-11.75h18.61v-53.53q0-3.17.19-6.54l-13.21 11.05q-1.14.89-2.25 1.11-1.12.22-2.1.03t-1.75-.66q-.76-.48-1.14-1.05l-4.95-6.8 28-23.81h12.89v80.2Zm63.18-2.86h23.56q2.54 0 4.03 1.43 1.5 1.43 1.5 3.78v9.4h-62.99v-5.21q0-1.58.66-3.33.67-1.75 2.13-3.14l27.88-27.94q3.49-3.56 6.25-6.8 2.76-3.24 4.6-6.41 1.85-3.18 2.83-6.45t.98-6.89q0-3.3-.95-5.81t-2.7-4.22q-1.74-1.71-4.19-2.57-2.44-.86-5.49-.86-2.79 0-5.18.79-2.38.8-4.22 2.23-1.84 1.43-3.11 3.33-1.27 1.91-1.91 4.19-1.07 2.92-2.79 3.88-1.71.95-4.95.44l-8.26-1.46q.96-6.6 3.69-11.59 2.73-4.98 6.82-8.32 4.1-3.33 9.4-5.01 5.3-1.69 11.4-1.69 6.35 0 11.62 1.88 5.27 1.87 9.02 5.3 3.74 3.43 5.84 8.25 2.09 4.83 2.09 10.74 0 5.08-1.49 9.39-1.49 4.32-4 8.26-2.51 3.93-5.87 7.62-3.37 3.68-7.05 7.49l-20.7 21.15q2.98-.89 5.93-1.37 2.96-.48 5.62-.48Zm105.41-31.3q0 12-2.57 20.86t-7.11 14.64q-4.54 5.77-10.73 8.6t-13.37 2.83q-7.17 0-13.3-2.83-6.13-2.83-10.64-8.6-4.51-5.78-7.05-14.64t-2.54-20.86q0-12.07 2.54-20.89 2.54-8.83 7.05-14.61 4.51-5.78 10.64-8.6 6.13-2.83 13.3-2.83 7.18 0 13.37 2.83 6.19 2.82 10.73 8.6 4.54 5.78 7.11 14.61 2.57 8.82 2.57 20.89Zm-16.19 0q0-9.97-1.46-16.51-1.46-6.54-3.9-10.41-2.45-3.88-5.62-5.43-3.18-1.56-6.61-1.56-3.36 0-6.51 1.56-3.14 1.55-5.55 5.43-2.42 3.87-3.84 10.41-1.43 6.54-1.43 16.51 0 9.97 1.43 16.51 1.42 6.54 3.84 10.41 2.41 3.88 5.55 5.43 3.15 1.56 6.51 1.56 3.43 0 6.61-1.56 3.17-1.55 5.62-5.43 2.44-3.87 3.9-10.41t1.46-16.51Zm89.85 0q0 12-2.57 20.86t-7.11 14.64q-4.54 5.77-10.73 8.6t-13.37 2.83q-7.17 0-13.3-2.83-6.13-2.83-10.64-8.6-4.51-5.78-7.05-14.64t-2.54-20.86q0-12.07 2.54-20.89 2.54-8.83 7.05-14.61 4.51-5.78 10.64-8.6 6.13-2.83 13.3-2.83 7.18 0 13.37 2.83 6.19 2.82 10.73 8.6 4.54 5.78 7.11 14.61 2.57 8.82 2.57 20.89Zm-16.19 0q0-9.97-1.46-16.51-1.46-6.54-3.9-10.41-2.45-3.88-5.62-5.43-3.18-1.56-6.61-1.56-3.36 0-6.51 1.56-3.14 1.55-5.55 5.43-2.42 3.87-3.84 10.41-1.43 6.54-1.43 16.51 0 9.97 1.43 16.51 1.42 6.54 3.84 10.41 2.41 3.88 5.55 5.43 3.15 1.56 6.51 1.56 3.43 0 6.61-1.56 3.17-1.55 5.62-5.43 2.44-3.87 3.9-10.41t1.46-16.51Zm117.03 24.89-8.32 8.19-21.52-21.52-21.72 21.65-8.32-8.19 21.72-21.78-20.7-20.7 8.25-8.26 20.7 20.7 20.58-20.57 8.38 8.25-20.64 20.64 21.59 21.59Zm86.93 9.27h16.51v11.75h-50.8v-11.75h18.61v-53.53q0-3.17.19-6.54l-13.21 11.05q-1.14.89-2.25 1.11-1.11.22-2.1.03-.98-.19-1.74-.66-.77-.48-1.15-1.05l-4.95-6.8 28-23.81h12.89v80.2Zm84.84-80.07-27.24 33.34-3.18 3.93q2.67-1.33 5.75-2.06t6.64-.73q5.2 0 10.12 1.71 4.93 1.72 8.67 5.18 3.75 3.46 6.03 8.6 2.29 5.15 2.29 12.01 0 6.41-2.35 12.03-2.35 5.62-6.6 9.81-4.26 4.19-10.26 6.6-6 2.42-13.24 2.42-7.36 0-13.21-2.35-5.84-2.35-9.97-6.58-4.12-4.22-6.31-10.16-2.19-5.93-2.19-13.17 0-6.48 2.63-13.31 2.64-6.82 8.16-14.19l21.91-29.4q1.14-1.52 3.33-2.6 2.19-1.08 5.05-1.08h13.97Zm-23.69 80.01q3.75 0 6.89-1.27 3.15-1.27 5.4-3.56 2.26-2.28 3.53-5.36 1.27-3.08 1.27-6.7 0-3.94-1.21-7.08-1.21-3.15-3.43-5.34t-5.33-3.33q-3.12-1.14-6.86-1.14-3.75 0-6.8 1.27-3.04 1.27-5.2 3.52-2.16 2.26-3.37 5.34t-1.21 6.63q0 3.81 1.05 6.95 1.05 3.15 3.11 5.37 2.07 2.22 5.12 3.46 3.04 1.24 7.04 1.24Zm107.45-34.1q0 12-2.58 20.86-2.57 8.86-7.11 14.64-4.54 5.77-10.73 8.6t-13.37 2.83q-7.17 0-13.3-2.83-6.13-2.83-10.64-8.6-4.5-5.78-7.04-14.64t-2.54-20.86q0-12.07 2.54-20.89 2.54-8.83 7.04-14.61 4.51-5.78 10.64-8.6 6.13-2.83 13.3-2.83 7.18 0 13.37 2.83 6.19 2.82 10.73 8.6 4.54 5.78 7.11 14.61 2.58 8.82 2.58 20.89Zm-16.2 0q0-9.97-1.46-16.51-1.46-6.54-3.9-10.41-2.45-3.88-5.62-5.43-3.18-1.56-6.61-1.56-3.36 0-6.5 1.56-3.15 1.55-5.56 5.43-2.41 3.87-3.84 10.41-1.43 6.54-1.43 16.51 0 9.97 1.43 16.51 1.43 6.54 3.84 10.41 2.41 3.88 5.56 5.43 3.14 1.56 6.5 1.56 3.43 0 6.61-1.56 3.17-1.55 5.62-5.43 2.44-3.87 3.9-10.41t1.46-16.51Zm89.86 0q0 12-2.58 20.86-2.57 8.86-7.11 14.64-4.54 5.77-10.73 8.6t-13.37 2.83q-7.17 0-13.3-2.83-6.13-2.83-10.64-8.6-4.5-5.78-7.04-14.64t-2.54-20.86q0-12.07 2.54-20.89 2.54-8.83 7.04-14.61 4.51-5.78 10.64-8.6 6.13-2.83 13.3-2.83 7.18 0 13.37 2.83 6.19 2.82 10.73 8.6 4.54 5.78 7.11 14.61 2.58 8.82 2.58 20.89Zm-16.2 0q0-9.97-1.46-16.51-1.46-6.54-3.9-10.41-2.45-3.88-5.62-5.43-3.18-1.56-6.61-1.56-3.36 0-6.5 1.56-3.15 1.55-5.56 5.43-2.41 3.87-3.84 10.41-1.43 6.54-1.43 16.51 0 9.97 1.43 16.51 1.43 6.54 3.84 10.41 2.41 3.88 5.56 5.43 3.14 1.56 6.5 1.56 3.43 0 6.61-1.56 3.17-1.55 5.62-5.43 2.44-3.87 3.9-10.41t1.46-16.51Z"/></svg>